<svg width="544" height="508" viewBox="0 0 544 508" fill="none" xmlns="http://www.w3.org/2000/svg">
<g clip-path="url(#clip0)">
<path d="M195.674 498.266C195.894 496.915 194.461 463.412 194.461 463.412L212.209 463.247L213.615 498.101L195.674 498.266Z" fill="#793B21"/>
<path d="M244.013 505.601L194.406 505.959V490.821L228.662 490.545C232.714 490.509 236.615 492.082 239.509 494.92C242.403 497.759 244.052 501.63 244.096 505.684L244.013 505.601Z" fill="#131313"/>
<path d="M49.6074 468.762C50.572 467.797 69.1196 439.864 69.1196 439.864L83.5333 450.287L64.2416 479.323L49.6074 468.762Z" fill="#793B21"/>
<path d="M84.3325 502.982L44.0954 474.056L53.0248 461.703L80.8876 481.667C82.5254 482.828 83.9178 484.301 84.9848 486.002C86.0519 487.703 86.7725 489.599 87.1054 491.579C87.4383 493.56 87.3769 495.587 86.9247 497.543C86.4725 499.5 85.6384 501.348 84.4703 502.982H84.3325Z" fill="#131313"/>
<path d="M202.949 229.418C203.776 239.179 204.823 248.94 205.705 258.701L208.875 287.93C209.867 297.691 211.134 307.397 212.264 317.131L215.737 346.305L215.902 347.711C215.916 347.876 215.916 348.042 215.902 348.207L216.784 378.925C217.115 389.155 217.308 399.413 217.749 409.643L218.961 440.333C219.485 450.535 219.871 460.765 220.505 470.995L187.13 472.898C186.579 462.668 185.835 452.465 185.201 442.235L182.913 411.6C182.197 401.398 181.232 391.196 180.405 380.993L177.815 350.386L178.008 352.261L172.413 323.446C170.484 313.822 168.665 304.144 166.626 294.631L160.618 265.843C158.496 256.247 156.484 246.541 154.251 237.111L202.949 229.418Z" fill="#03345F"/>
<path d="M172.138 237.58L155.188 347.077L154.968 348.483C154.603 350.784 153.778 352.988 152.543 354.963L84.305 463.661L55.6705 446.399L119.857 335.247L117.101 343.134L122.971 232.478L172.138 237.58Z" fill="#03345F"/>
<path d="M125.865 141.511L193.965 138.754C195.289 138.702 196.611 138.917 197.85 139.386C199.09 139.855 200.223 140.568 201.182 141.484C202.141 142.4 202.906 143.499 203.432 144.716C203.958 145.933 204.235 147.244 204.245 148.57L204.823 225.778C204.84 228.347 203.857 230.822 202.082 232.68C200.308 234.537 197.881 235.632 195.315 235.732L133.141 238.131C130.596 238.232 128.11 237.344 126.204 235.653C124.299 233.962 123.12 231.599 122.916 229.059L116.384 152.237C116.276 150.904 116.437 149.563 116.859 148.294C117.281 147.026 117.955 145.855 118.841 144.853C119.726 143.852 120.805 143.039 122.012 142.465C123.219 141.89 124.529 141.566 125.865 141.511Z" fill="#FFA883"/>
<path d="M174.425 124.801L175.224 145.178L158.303 141.925L160.563 123.615L174.425 124.801Z" fill="#5B2A15"/>
<path d="M191.347 101.253L186.772 99.8187L184.87 105.885L189.225 106.464L191.981 104.424C192.241 104.215 192.44 103.939 192.554 103.625C192.668 103.312 192.694 102.972 192.629 102.645C192.563 102.318 192.409 102.014 192.183 101.769C191.957 101.523 191.667 101.345 191.347 101.253Z" fill="#5B2A15"/>
<path d="M180.296 124.788C189.474 119.495 192.626 107.759 187.335 98.5766C182.045 89.3936 170.316 86.2404 161.138 91.5336C151.96 96.8269 148.808 108.562 154.099 117.745C159.389 126.928 171.118 130.081 180.296 124.788Z" fill="#793B21"/>
<path d="M189.858 93.1182C189.182 91.1223 188.11 89.2838 186.705 87.7131C185.301 86.1425 183.594 84.8721 181.686 83.9784C179.779 83.0847 177.71 82.586 175.605 82.5124C173.5 82.4387 171.402 82.7916 169.437 83.5499L168.031 84.1014L144.964 99.6533C144.964 99.6533 142.015 116.915 150.476 116.584C165.937 115.977 170.015 107.098 170.401 98.7433L189.858 93.1182Z" fill="#072042"/>
<path d="M168.114 111.207C167.973 112.262 167.523 113.251 166.82 114.049C166.117 114.848 165.194 115.42 164.166 115.693C163.138 115.966 162.052 115.928 161.046 115.583C160.04 115.238 159.158 114.603 158.514 113.756C157.869 112.91 157.489 111.892 157.423 110.83C157.357 109.768 157.608 108.71 158.143 107.79C158.678 106.871 159.474 106.131 160.429 105.664C161.385 105.197 162.458 105.025 163.511 105.168C164.906 105.393 166.161 106.145 167.017 107.269C167.873 108.392 168.266 109.802 168.114 111.207Z" fill="#5B2A15"/>
<path d="M138.901 103.431C135.408 102.051 132.402 99.6656 130.264 96.5767C128.126 93.4878 126.952 89.834 126.889 86.0772C126.827 82.3205 127.879 78.6295 129.912 75.4709C131.946 72.3123 134.87 69.8281 138.315 68.3322C141.76 66.8363 145.571 66.396 149.266 67.067C152.961 67.7379 156.374 69.4899 159.074 72.1016C161.774 74.7132 163.639 78.0671 164.434 81.7393C165.228 85.4115 164.917 89.237 163.539 92.7321C162.624 95.0536 161.26 97.1718 159.527 98.9659C157.793 100.76 155.723 102.195 153.435 103.188C151.147 104.182 148.686 104.715 146.192 104.756C143.698 104.798 141.22 104.348 138.901 103.431Z" fill="#072042"/>
<path d="M149.566 140.629L184.347 139.305C184.347 139.305 183.106 152.348 167.37 153.092C151.633 153.837 149.566 140.629 149.566 140.629Z" fill="#793B21"/>
<path d="M253.699 245.857C284.447 226.953 294.056 186.689 275.162 155.926C256.268 125.162 216.026 115.548 185.279 134.451C154.532 153.355 144.922 193.619 163.816 224.382C182.71 255.146 222.952 264.76 253.699 245.857Z" fill="#C1DDF7"/>
<path d="M256.118 229.959C278.108 209.721 279.537 175.478 259.309 153.477C239.081 131.475 204.857 130.046 182.867 150.285C160.877 170.523 159.449 204.765 179.677 226.767C199.904 248.768 234.129 250.198 256.118 229.959Z" fill="#EBF5FF"/>
<path d="M240.541 183.231C237.978 181.964 235.054 181.632 232.273 182.293C233.831 180.552 234.796 178.36 235.029 176.034C235.353 173.758 234.937 171.438 233.844 169.416C233.015 167.547 231.653 165.965 229.93 164.866C228.294 163.766 226.444 163.023 224.501 162.688C222.658 162.355 220.761 162.498 218.989 163.102C217.095 163.64 215.25 164.341 213.477 165.197L210.39 158.552L203.142 162.026L206.339 168.672L202.095 170.712L201.709 170.905L198.429 164.26L190.988 167.844L194.185 174.49L193.166 174.958L186.331 178.24L189.886 185.712L196.748 182.404L211.245 212.735L204.465 215.906L208.048 223.351L214.965 220.07L215.985 219.601L218.961 225.833L226.43 222.248L223.233 216.016L223.647 215.823L227.863 213.783L230.867 220.042L238.308 216.458L235.304 210.226C238.06 208.957 239.852 207.799 240.651 207.468C242.758 206.266 244.479 204.486 245.612 202.34C246.808 200.364 247.411 198.086 247.348 195.777C247.384 193.449 246.875 191.144 245.86 189.049C244.838 186.536 242.951 184.473 240.541 183.231ZM210.914 175.648C213.481 174.294 216.132 173.106 218.851 172.091C220.213 171.593 221.706 171.593 223.068 172.091C224.301 172.63 225.285 173.615 225.824 174.848C226.19 175.511 226.416 176.243 226.487 176.997C226.558 177.752 226.473 178.512 226.237 179.232C225.67 180.594 224.711 181.756 223.481 182.569L216.646 185.85L210.611 188.608L205.595 178.157L210.914 175.648ZM237.013 197.542C236.678 198.916 235.843 200.115 234.67 200.906C232.699 202.098 230.645 203.148 228.525 204.049L220.064 208.103L214.276 196.025L221.717 192.441C224.334 191.03 227.11 189.938 229.985 189.187C231.281 189.031 232.595 189.261 233.761 189.849C234.958 190.529 235.919 191.558 236.517 192.799C237.169 194.29 237.343 195.948 237.013 197.542Z" fill="#052E47"/>
<path d="M215.599 181.99C214.392 181.256 213.053 180.767 211.657 180.552C210.261 180.336 208.837 180.398 207.465 180.733C206.093 181.069 204.801 181.671 203.662 182.507C202.523 183.342 201.56 184.394 200.827 185.602C199.842 187.204 199.309 189.043 199.284 190.924L186.11 200.079L187.102 212.101L207.111 201.292C209.536 201.826 212.072 201.503 214.287 200.378C216.501 199.252 218.258 197.395 219.258 195.12C220.258 192.846 220.44 190.295 219.773 187.901C219.106 185.507 217.631 183.419 215.599 181.99Z" fill="#793B21"/>
<path d="M124.515 247.506C121.976 247.562 119.482 246.83 117.377 245.411C115.607 244.255 114.168 242.658 113.201 240.777C112.235 238.897 111.774 236.797 111.865 234.684L116.274 150.941L140.003 150.197L137.109 215.52L192.587 188.663L203.17 210.557L129.337 246.403C127.825 247.106 126.182 247.481 124.515 247.506Z" fill="#FFA883"/>
<path d="M346.287 323.97V350.551C346.287 351.458 346.647 352.328 347.288 352.969C347.929 353.61 348.798 353.97 349.704 353.97H360.425V320.55H349.704C348.8 320.558 347.935 320.92 347.296 321.56C346.657 322.2 346.294 323.065 346.287 323.97Z" fill="#052E47"/>
<path d="M408.627 347.435L402.757 324.494C402.459 323.366 401.799 322.369 400.877 321.656C399.955 320.943 398.823 320.554 397.658 320.55H365.303V354.081C370.917 358.842 375.933 364.268 380.241 370.239C380.897 371.249 381.898 371.985 383.057 372.311C384.215 372.637 385.453 372.53 386.539 372.01C387.625 371.491 388.485 370.594 388.959 369.486C389.433 368.379 389.488 367.138 389.115 365.993C387.534 361.433 384.855 357.332 381.315 354.053H403.363C404.184 354.081 405 353.916 405.746 353.571C406.492 353.227 407.147 352.712 407.659 352.069C408.17 351.426 408.524 350.672 408.693 349.867C408.861 349.062 408.838 348.23 408.627 347.435Z" fill="#009ADA"/>
<path d="M527.795 66.1781V39.8172C527.788 38.9224 527.427 38.0668 526.792 37.4367C526.157 36.8066 525.299 36.4531 524.405 36.4531H513.85V69.5422H524.405C525.299 69.5422 526.157 69.1887 526.792 68.5586C527.427 67.9285 527.788 67.0729 527.795 66.1781Z" fill="#052E47"/>
<path d="M466.337 42.9055L472.124 65.5163C472.416 66.6266 473.065 67.6096 473.972 68.3126C474.879 69.0157 475.993 69.3994 477.14 69.4043H509.027V36.3152C503.505 31.6175 498.564 26.2762 494.31 20.4049C493.668 19.4069 492.684 18.6773 491.543 18.3526C490.402 18.0279 489.182 18.1303 488.111 18.6407C487.04 19.1512 486.191 20.0346 485.724 21.1257C485.257 22.2168 485.204 23.4408 485.574 24.5686C487.141 29.069 489.78 33.1197 493.263 36.3704H471.491C470.682 36.3466 469.88 36.5125 469.147 36.8547C468.414 37.1969 467.772 37.7059 467.271 38.341C466.77 38.9761 466.425 39.7198 466.263 40.5123C466.1 41.3049 466.126 42.1245 466.337 42.9055Z" fill="#009ADA"/>
<path d="M544 315.808V180.694H342.539V281.257C342.546 283.739 343.537 286.116 345.293 287.869C347.05 289.621 349.429 290.605 351.909 290.605H515.366L544 315.808Z" fill="#D7E8F7"/>
<path d="M544.028 180.666L342.566 180.666V164.673C342.566 163.533 342.791 162.403 343.227 161.349C343.664 160.296 344.303 159.338 345.109 158.531C345.915 157.725 346.872 157.085 347.926 156.649C348.979 156.212 350.108 155.987 351.248 155.987L535.319 155.987C536.459 155.987 537.588 156.212 538.641 156.649C539.694 157.085 540.651 157.725 541.457 158.531C542.263 159.338 542.903 160.296 543.339 161.349C543.775 162.403 544 163.533 544 164.673V180.666H544.028Z" fill="#031C26"/>
<path d="M367.232 174.462C370.292 174.462 372.772 171.981 372.772 168.92C372.772 165.859 370.292 163.377 367.232 163.377C364.173 163.377 361.693 165.859 361.693 168.92C361.693 171.981 364.173 174.462 367.232 174.462Z" fill="#C1DDF7"/>
<path d="M384.871 174.462C387.93 174.462 390.41 171.981 390.41 168.92C390.41 165.859 387.93 163.377 384.871 163.377C381.811 163.377 379.331 165.859 379.331 168.92C379.331 171.981 381.811 174.462 384.871 174.462Z" fill="#C1DDF7"/>
<path d="M402.509 174.462C405.568 174.462 408.048 171.981 408.048 168.92C408.048 165.859 405.568 163.377 402.509 163.377C399.449 163.377 396.969 165.859 396.969 168.92C396.969 171.981 399.449 174.462 402.509 174.462Z" fill="#C1DDF7"/>
<path d="M427.068 237.545C431.222 220.031 420.399 202.464 402.894 198.307C385.389 194.151 367.831 204.98 363.677 222.494C359.523 240.008 370.346 257.575 387.851 261.731C405.356 265.888 422.914 255.059 427.068 237.545Z" fill="#F8FCFF"/>
<path d="M408.214 227.653H400.772V214.362C400.772 214.217 400.744 214.074 400.689 213.94C400.633 213.806 400.552 213.685 400.45 213.582C400.347 213.48 400.226 213.398 400.092 213.343C399.958 213.288 399.815 213.259 399.67 213.259H391.099C390.954 213.259 390.811 213.288 390.677 213.343C390.543 213.398 390.422 213.48 390.319 213.582C390.217 213.685 390.136 213.806 390.081 213.94C390.025 214.074 389.997 214.217 389.997 214.362V227.653H382.528C382.331 227.659 382.139 227.716 381.971 227.819C381.803 227.922 381.665 228.067 381.57 228.239C381.476 228.412 381.428 228.607 381.431 228.804C381.435 229.001 381.49 229.193 381.591 229.362L394.434 249.988C394.533 250.148 394.671 250.279 394.835 250.371C394.999 250.462 395.183 250.51 395.371 250.51C395.558 250.51 395.743 250.462 395.907 250.371C396.071 250.279 396.209 250.148 396.308 249.988L409.151 229.362C409.261 229.195 409.323 229.001 409.331 228.8C409.34 228.6 409.293 228.401 409.197 228.225C409.1 228.05 408.958 227.903 408.785 227.802C408.611 227.702 408.414 227.65 408.214 227.653Z" fill="#0AC876"/>
<path d="M497.286 211.081H451.041C449.626 211.081 448.478 212.229 448.478 213.645V213.893C448.478 215.31 449.626 216.458 451.041 216.458H497.286C498.702 216.458 499.849 215.31 499.849 213.893V213.645C499.849 212.229 498.702 211.081 497.286 211.081Z" fill="#EBF5FF"/>
<path d="M477.912 226.412H451.041C449.626 226.412 448.478 227.56 448.478 228.976V229.225C448.478 230.641 449.626 231.789 451.041 231.789H477.912C479.327 231.789 480.475 230.641 480.475 229.225V228.976C480.475 227.56 479.327 226.412 477.912 226.412Z" fill="#EBF5FF"/>
<path d="M519.803 242.984H451.041C449.626 242.984 448.478 244.132 448.478 245.548V245.797C448.478 247.213 449.626 248.361 451.041 248.361H519.803C521.218 248.361 522.366 247.213 522.366 245.797V245.548C522.366 244.132 521.218 242.984 519.803 242.984Z" fill="#EBF5FF"/>
<path d="M277.636 122.843V18.9711H432.466V96.1789C432.466 98.0876 431.708 99.9182 430.359 101.268C429.01 102.618 427.181 103.376 425.273 103.376H299.684L277.636 122.843Z" fill="#D7E8F7"/>
<path d="M284.305 0H425.797C427.565 0 429.262 0.703042 430.513 1.95447C431.763 3.20589 432.466 4.90318 432.466 6.67296V18.9711H277.636V6.67296C277.636 4.90318 278.339 3.20589 279.589 1.95447C280.84 0.703042 282.537 0 284.305 0V0Z" fill="#031C26"/>
<path d="M296.101 14.9453C298.856 14.9453 301.089 12.7107 301.089 9.95431C301.089 7.1979 298.856 4.96338 296.101 4.96338C293.346 4.96338 291.113 7.1979 291.113 9.95431C291.113 12.7107 293.346 14.9453 296.101 14.9453Z" fill="#C1DDF7"/>
<path d="M312.003 14.9453C314.758 14.9453 316.991 12.7107 316.991 9.95431C316.991 7.1979 314.758 4.96338 312.003 4.96338C309.248 4.96338 307.015 7.1979 307.015 9.95431C307.015 12.7107 309.248 14.9453 312.003 14.9453Z" fill="#C1DDF7"/>
<path d="M332.893 9.95431C332.893 10.9438 332.599 11.9109 332.048 12.7328C331.498 13.5547 330.715 14.1943 329.801 14.5704C328.886 14.9465 327.88 15.042 326.911 14.8449C325.942 14.6478 325.053 14.167 324.358 13.4635C323.663 12.7599 323.192 11.8655 323.006 10.8938C322.819 9.922 322.926 8.9168 323.312 8.00584C323.698 7.09489 324.346 6.31928 325.174 5.77756C326.001 5.23584 326.971 4.95245 327.96 4.96338C329.273 4.9779 330.528 5.51013 331.452 6.44455C332.375 7.37896 332.893 8.64013 332.893 9.95431Z" fill="#C1DDF7"/>
<path d="M343.064 64.7116C345.271 51.0613 336.001 38.2053 322.358 35.9969C308.715 33.7885 295.865 43.0639 293.658 56.7142C291.451 70.3645 300.721 83.2205 314.364 85.4289C328.007 87.6374 340.857 78.3619 343.064 64.7116Z" fill="#F8FCFF"/>
<path d="M308.503 62.5108H314.18V72.7132C314.18 72.9399 314.27 73.1574 314.43 73.3177C314.59 73.478 314.808 73.568 315.034 73.568H321.621C321.848 73.568 322.065 73.478 322.225 73.3177C322.385 73.1574 322.475 72.9399 322.475 72.7132V62.5108H328.18C328.33 62.5081 328.477 62.466 328.606 62.3886C328.734 62.3112 328.84 62.2013 328.913 62.0699C328.985 61.9385 329.022 61.7903 329.019 61.6402C329.017 61.4901 328.974 61.3434 328.897 61.2148L319.031 45.3596C318.953 45.2401 318.847 45.1419 318.722 45.0739C318.597 45.0059 318.456 44.9703 318.314 44.9703C318.172 44.9703 318.031 45.0059 317.906 45.0739C317.781 45.1419 317.675 45.2401 317.597 45.3596L307.731 61.2148C307.651 61.3474 307.608 61.4993 307.608 61.6542C307.607 61.8092 307.649 61.9613 307.728 62.0944C307.808 62.2275 307.921 62.3366 308.058 62.4099C308.194 62.4833 308.348 62.5181 308.503 62.5108Z" fill="#FF3100"/>
<path d="M367.398 43.5948H360.094C358.999 43.5948 358.11 44.4837 358.11 45.5802V45.7732C358.11 46.8697 358.999 47.7586 360.094 47.7586H367.398C368.494 47.7586 369.382 46.8697 369.382 45.7732V45.5802C369.382 44.4837 368.494 43.5948 367.398 43.5948Z" fill="#EBF5FF"/>
<path d="M412.458 55.4518H360.094C358.999 55.4518 358.11 56.3406 358.11 57.4371V57.6301C358.11 58.7266 358.999 59.6155 360.094 59.6155H412.458C413.554 59.6155 414.442 58.7266 414.442 57.6301V57.4371C414.442 56.3406 413.554 55.4518 412.458 55.4518Z" fill="#EBF5FF"/>
<path d="M397.879 68.2738H360.094C358.999 68.2738 358.11 69.1627 358.11 70.2591V70.4522C358.11 71.5486 358.999 72.4375 360.094 72.4375H397.879C398.975 72.4375 399.863 71.5486 399.863 70.4522V70.2591C399.863 69.1627 398.975 68.2738 397.879 68.2738Z" fill="#EBF5FF"/>
</g>
<defs>
<clipPath id="clip0">
<rect width="544" height="508" fill="white"/>
</clipPath>
</defs>
</svg>
