<svg width="32" height="32" viewBox="0 0 32 32" fill="none" xmlns="http://www.w3.org/2000/svg">
<circle cx="16" cy="16" r="16" fill="#072042"/>
<g clip-path="url(#clip0)">
<path d="M24.7416 17.8096V24H21.1539V18.2219C21.1539 16.7702 20.6356 15.7824 19.3357 15.7824C18.9311 15.7848 18.5372 15.912 18.2076 16.1467C17.8781 16.3814 17.6291 16.7122 17.4946 17.0938C17.4019 17.3761 17.3611 17.673 17.3744 17.9699V24H13.7867C13.7867 24 13.8354 14.219 13.7867 13.2054H17.3744V14.7344L17.3515 14.7688H17.3744V14.7344C17.6983 14.1716 18.1699 13.708 18.7381 13.3937C19.3063 13.0793 19.9495 12.9261 20.5984 12.9506C22.9721 12.9506 24.7416 14.4939 24.7416 17.8096ZM10.0301 8C8.80458 8 8 8.80458 8 9.86399C8 10.9234 8.77881 11.7223 9.98425 11.7223H10.0043C11.2555 11.7223 12.0344 10.8919 12.0344 9.8554C12.0344 8.8189 11.2584 8 10.0301 8ZM8.21188 24H11.8024V13.2026H8.21188V24Z" fill="#F5FCFF"/>
</g>
<defs>
<clipPath id="clip0">
<rect x="8" y="8" width="16.7416" height="16" fill="white"/>
</clipPath>
</defs>
</svg>
