<svg width="175" height="36" viewBox="0 0 175 36" fill="none" xmlns="http://www.w3.org/2000/svg">
<g clip-path="url(#clip0)">
<path d="M18.0403 22.0477L10.9597 14.9688C10.305 14.3175 9.83471 13.5041 9.59693 12.6117C9.35916 11.7193 9.36237 10.7797 9.60626 9.88895C9.85014 8.99817 10.326 8.18803 10.9852 7.54119C11.6444 6.89434 12.4634 6.43395 13.3586 6.20698L14.0052 6.03365C14.0052 4.31594 14.0052 1.66744 14.0052 0.987986V0L13.0154 0.145598C10.3462 0.537608 7.90708 1.87687 6.14371 3.9187C4.38034 5.96053 3.41043 8.56862 3.41118 11.2665C3.40702 12.7442 3.69594 14.2081 4.26123 15.5734C4.82651 16.9387 5.65694 18.1784 6.70446 19.2207L13.785 26.3012C14.3493 26.8653 15.1146 27.1821 15.9124 27.1819C16.7103 27.1817 17.4754 26.8646 18.0394 26.3004C18.6035 25.7361 18.9203 24.9708 18.9201 24.173C18.92 23.3751 18.6028 22.61 18.0386 22.0459L18.0403 22.0477Z" fill="#009ADA"/>
<path d="M29.6951 10.3999L22.6145 3.31412C21.2398 1.94282 19.533 0.951461 17.6607 0.436825L16.5705 0.136963V6.37687L17.0402 6.61607C17.5281 6.86354 17.9738 7.18644 18.361 7.57285L25.4416 14.6465C25.7193 14.9255 26.0493 15.1468 26.4128 15.2979C26.7763 15.449 27.166 15.5269 27.5597 15.527C28.1539 15.5275 28.7349 15.3519 29.2294 15.0225C29.7239 14.693 30.1097 14.2245 30.3381 13.676C30.5666 13.1275 30.6274 12.5236 30.513 11.9405C30.3986 11.3574 30.1139 10.8213 29.6951 10.3999Z" fill="#009ADA"/>
<g style="mix-blend-mode:multiply" opacity="0.3">
<path d="M18.2465 22.2748C18.1817 22.1951 18.1129 22.1187 18.0403 22.046L10.9597 14.9689C9.97853 13.9873 9.42734 12.6562 9.42734 11.2682C9.42734 9.88034 9.97853 8.54925 10.9597 7.56764C11.0418 7.48559 11.1267 7.40644 11.2145 7.33017C11.8315 6.79325 12.5659 6.40855 13.3586 6.20699L14.0051 6.03366C14.0051 4.92954 14.0051 3.52383 14.0051 3.16157V2.12158L12.986 2.31225C11.3574 2.61744 9.84298 3.36142 8.60611 4.46397C7.36923 5.56651 6.4568 6.98578 5.9672 8.56874C5.4776 10.1517 5.42941 11.8383 5.82782 13.4466C6.22623 15.0549 7.05613 16.524 8.22802 17.6954L17.3331 26.823C17.481 26.7424 17.6219 26.6497 17.7543 26.5456L17.8305 26.4798H17.8531C17.9189 26.4243 17.9848 26.3671 18.0472 26.3064C18.5735 25.7782 18.8852 25.0736 18.922 24.3289C18.9588 23.5842 18.7182 22.8523 18.2465 22.2748Z" fill="#009ADA"/>
</g>
<g style="mix-blend-mode:multiply" opacity="0.3">
<path d="M25.6686 14.8529C26.2081 15.2896 26.8812 15.5276 27.5753 15.5271C27.9699 15.5281 28.3609 15.451 28.7256 15.3002C29.0904 15.1494 29.4216 14.9278 29.7003 14.6483C29.9063 14.4436 30.0814 14.2101 30.2203 13.955L21.0979 4.83434C20.1465 3.87829 18.9926 3.14795 17.7214 2.69717L16.5705 2.28638V6.37005L17.0402 6.60925C17.5281 6.85672 17.9738 7.17962 18.361 7.56603L25.4416 14.6466C25.5132 14.7171 25.5872 14.7841 25.6634 14.8477L25.6686 14.8529Z" fill="#009ADA"/>
</g>
<path d="M13.5337 28.9705C13.0462 28.7232 12.6005 28.4009 12.2129 28.0154L5.13234 20.9349C4.56806 20.3708 3.80281 20.054 3.00496 20.0542C2.2071 20.0544 1.44199 20.3715 0.877936 20.9357C0.313882 21.5 -0.00290905 22.2653 -0.00274652 23.0631C-0.00258399 23.861 0.314519 24.6261 0.878803 25.1902L7.95763 32.269C9.33228 33.6424 11.0398 34.6355 12.9132 35.1515L14.0034 35.4513V29.2114L13.5337 28.9705Z" fill="#009ADA"/>
<path d="M23.8677 16.3606L16.7871 9.28182C16.5078 9.00252 16.1763 8.78098 15.8114 8.62983C15.4464 8.47868 15.0553 8.40088 14.6604 8.40088C14.2654 8.40088 13.8743 8.47868 13.5094 8.62983C13.1444 8.78098 12.8129 9.00252 12.5336 9.28182C12.2543 9.56111 12.0327 9.89267 11.8816 10.2576C11.7304 10.6225 11.6526 11.0136 11.6526 11.4086C11.6526 11.8036 11.7304 12.1947 11.8816 12.5596C12.0327 12.9245 12.2543 13.2561 12.5336 13.5354L19.6142 20.6142C20.2678 21.2658 20.7372 22.079 20.9746 22.9709C21.212 23.8628 21.209 24.8017 20.9658 25.6921C20.7226 26.5824 20.2479 27.3925 19.59 28.0399C18.9322 28.6873 18.1146 29.1489 17.2205 29.3778L16.5722 29.5511V35.5917L17.5584 35.4478C19.6221 35.1448 21.5609 34.2738 23.1579 32.9322C24.755 31.5906 25.9475 29.8313 26.6022 27.8509C27.2568 25.8705 27.3477 23.747 26.8648 21.7179C26.3819 19.6887 25.3442 17.8339 23.8677 16.3606Z" fill="#009ADA"/>
<g style="mix-blend-mode:multiply" opacity="0.3">
<path d="M13.5337 28.9706C13.0462 28.7233 12.6005 28.401 12.2129 28.0155L5.13233 20.935C4.85359 20.655 4.52212 20.433 4.15708 20.2818C3.79203 20.1307 3.40065 20.0534 3.00556 20.0545C2.90676 20.0545 2.80797 20.0545 2.7109 20.0683L2.6121 20.0822C2.54797 20.0822 2.48384 20.0978 2.42144 20.1099C2.35904 20.1221 2.34691 20.129 2.30877 20.1377C2.27064 20.1463 2.19611 20.1637 2.13544 20.1793C2.07478 20.1949 2.05918 20.2053 2.01931 20.2191C1.97944 20.233 1.91358 20.2538 1.86158 20.2746C1.80958 20.2954 1.78531 20.3092 1.74718 20.3266C1.70905 20.3439 1.64838 20.3716 1.59985 20.3959C1.55132 20.4202 1.52532 20.4392 1.48892 20.46C1.45252 20.4808 1.39532 20.5138 1.35025 20.5432C1.30519 20.5727 1.27919 20.5952 1.24279 20.6212C1.20639 20.6472 1.15612 20.6819 1.11452 20.7166C1.07292 20.7512 1.04519 20.7772 1.01052 20.8067C0.975859 20.8362 0.915193 20.8882 0.87186 20.9332C0.665852 21.1379 0.49069 21.3715 0.351868 21.6266L9.46907 30.7438C10.4205 31.6998 11.5743 32.4302 12.8456 32.8809L13.9965 33.2917V29.2011L13.5337 28.9706Z" fill="#009ADA"/>
</g>
<g style="mix-blend-mode:multiply" opacity="0.3">
<path d="M21.1464 24.3147C21.1476 25.4749 20.7623 26.6024 20.0514 27.5192C19.3404 28.436 18.3444 29.09 17.2204 29.3777L16.5722 29.551V33.4527L17.5914 33.262C19.2197 32.9565 20.7339 32.2124 21.9706 31.1099C23.2073 30.0074 24.1197 28.5883 24.6094 27.0056C25.0991 25.4228 25.1476 23.7364 24.7496 22.1281C24.3517 20.5198 23.5223 19.0507 22.351 17.8789L13.2304 8.76172C12.9755 8.90091 12.742 9.07603 12.537 9.28171C12.4746 9.34411 12.4174 9.40998 12.3637 9.47758L12.3342 9.51051C12.2892 9.56597 12.2493 9.62317 12.2094 9.68384C12.1921 9.70811 12.173 9.73237 12.1557 9.75664C12.1384 9.7809 12.0968 9.85544 12.069 9.90397C12.0413 9.9525 12.024 9.97503 12.0049 10.0132C11.9858 10.0513 11.9685 10.0929 11.9494 10.1345C11.9304 10.1761 11.9026 10.2316 11.8818 10.2801C11.861 10.3286 11.861 10.3408 11.8489 10.372C11.8264 10.4326 11.8038 10.4933 11.7848 10.5557C11.7848 10.5817 11.7726 10.6077 11.7657 10.6337C11.7484 10.7013 11.7293 10.7689 11.7155 10.8382C11.7155 10.8608 11.7155 10.885 11.7051 10.9076C11.6929 10.9804 11.6808 11.0514 11.6739 11.1242C11.6739 11.1502 11.6739 11.1762 11.6739 11.2005C11.6739 11.2715 11.6635 11.3409 11.6635 11.4119C11.6635 11.4553 11.6635 11.4986 11.6635 11.5437C11.6635 11.5887 11.6635 11.6494 11.6635 11.7014C11.6635 11.7534 11.6825 11.8539 11.6964 11.9285C11.6964 11.9475 11.6964 11.9666 11.6964 11.9874C11.8078 12.5783 12.0947 13.122 12.5197 13.5474L19.6003 20.6262C20.0887 21.1085 20.4768 21.6828 20.7421 22.3159C21.0075 22.9489 21.1449 23.6283 21.1464 24.3147Z" fill="#009ADA"/>
</g>
<path d="M44.6032 7.49146C47.3985 7.49146 49.4646 8.01145 50.8015 9.05143C52.1385 10.0914 52.807 11.6733 52.807 13.7972C52.807 14.9193 52.603 15.8633 52.1951 16.6295C51.8081 17.3699 51.2588 18.0134 50.5883 18.5118C49.9562 18.9844 49.2607 19.3654 48.5222 19.6437L54.6443 29.3502H50.8483L45.5843 20.5103H41.7883V29.3502H38.4794V7.49146H44.6032ZM44.39 10.3081H41.7901V17.7457H44.546C46.24 17.7457 47.4747 17.4245 48.2501 16.782C49.0255 16.1395 49.4131 15.1856 49.4131 13.9203C49.4131 12.6145 49.0052 11.6861 48.1894 11.1349C47.3736 10.5837 46.1071 10.3081 44.39 10.3081Z" fill="#252728"/>
<path d="M64.4999 12.5422C66.5602 12.5422 68.1057 12.9963 69.1364 13.9046C70.1672 14.8128 70.6826 16.2365 70.6826 18.1754V29.3483H68.3877L67.7446 27.0534H67.6215C67.0134 27.8588 66.2465 28.5307 65.3682 29.0277C64.5825 29.446 63.4957 29.6551 62.1079 29.6551C60.6184 29.6551 59.3837 29.2507 58.4038 28.4418C57.4239 27.6329 56.934 26.3728 56.934 24.6615C56.934 22.9686 57.5695 21.6883 58.8406 20.8205C60.1117 19.9527 62.0553 19.4783 64.6714 19.3974L67.4881 19.3056V18.3869C67.4881 17.1828 67.2125 16.3306 66.6613 15.8303C66.1101 15.3299 65.3388 15.0798 64.3473 15.0798C63.5243 15.0763 62.7058 15.2002 61.9207 15.4472C61.1553 15.6882 60.4086 15.9848 59.6865 16.3347L58.6465 13.9774C59.4992 13.5392 60.3972 13.1951 61.3244 12.9513C62.3599 12.6736 63.4278 12.536 64.4999 12.5422ZM67.469 21.4185L65.2642 21.4791C63.3865 21.5612 62.0854 21.8772 61.3608 22.4272C61.009 22.6879 60.7261 23.0305 60.5367 23.4253C60.3473 23.8201 60.2571 24.2551 60.274 24.6927C60.274 25.5501 60.5288 26.1723 61.0384 26.5595C61.548 26.9466 62.2113 27.1407 63.0283 27.1418C64.2936 27.1418 65.3498 26.7848 66.1968 26.0707C67.0438 25.3565 67.4673 24.2854 67.4673 22.8571L67.469 21.4185Z" fill="#252728"/>
<path d="M79.5294 6.08374V11.6858C79.5294 12.3387 79.5144 12.9742 79.4844 13.5924C79.4543 14.2106 79.4185 14.685 79.3769 15.0155H79.5294C80.0242 14.3014 80.6728 13.7074 81.4274 13.277C82.2236 12.8078 83.2543 12.5732 84.5196 12.5732C86.4991 12.5732 88.096 13.2874 89.3105 14.7156C90.525 16.1439 91.1322 18.266 91.1322 21.0821C91.1322 23.9189 90.5198 26.0567 89.2949 27.4953C88.07 28.9339 86.4679 29.6533 84.4884 29.6533C83.2173 29.6533 82.1918 29.4222 81.4118 28.9599C80.6795 28.5477 80.0389 27.9903 79.5294 27.322H79.285L78.6732 29.3413H76.2847V6.08374H79.5294ZM83.7535 15.2044C82.182 15.2044 81.09 15.6666 80.4775 16.5911C79.8651 17.5155 79.5491 18.9385 79.5294 20.8602V21.1046C79.5294 23.002 79.8304 24.4562 80.4325 25.4673C81.0345 26.4784 82.1617 26.9834 83.8142 26.9822C85.1407 26.9822 86.1356 26.4721 86.7989 25.4517C87.4622 24.4314 87.7938 22.9621 87.7938 21.0439C87.7938 17.1509 86.4471 15.2044 83.7535 15.2044Z" fill="#252728"/>
<path d="M102.265 12.5422C104.326 12.5422 105.871 12.9963 106.902 13.9045C107.933 14.8128 108.448 16.2364 108.448 18.1754V29.3483H106.16L105.517 27.0534H105.394C104.786 27.8587 104.019 28.5307 103.141 29.0277C102.355 29.446 101.268 29.6551 99.8802 29.6551C98.3907 29.6551 97.156 29.2507 96.1761 28.4418C95.1962 27.6329 94.7062 26.3728 94.7062 24.6614C94.7062 22.9686 95.3418 21.6882 96.6129 20.8204C97.884 19.9526 99.8276 19.4783 102.444 19.3974L105.26 19.3055V18.3869C105.26 17.1828 104.985 16.3306 104.434 15.8302C103.882 15.3299 103.111 15.0797 102.12 15.0797C101.297 15.0762 100.478 15.2002 99.693 15.4472C98.9276 15.6882 98.1809 15.9848 97.4587 16.3346L96.4187 13.9773C97.2715 13.5391 98.1695 13.1951 99.0967 12.9512C100.13 12.6741 101.196 12.5366 102.265 12.5422ZM105.234 21.4184L103.03 21.4791C101.152 21.5611 99.8507 21.8772 99.1262 22.4272C98.7743 22.6879 98.4914 23.0305 98.302 23.4253C98.1126 23.82 98.0225 24.2551 98.0394 24.6926C98.0394 25.5501 98.2942 26.1723 98.8038 26.5594C99.3134 26.9465 99.9766 27.1407 100.794 27.1418C102.059 27.1418 103.115 26.7848 103.962 26.0706C104.809 25.3565 105.233 24.2853 105.233 22.8571L105.234 21.4184Z" fill="#252728"/>
<path d="M122.106 15.3277H118.038V29.3467H114.792V15.3277H112.005V13.7972L114.79 12.7867V11.7467C114.79 9.6448 115.275 8.15011 116.244 7.26266C117.214 6.3752 118.566 5.93148 120.3 5.93148C120.958 5.9261 121.614 5.98766 122.259 6.11521C122.767 6.21573 123.268 6.34889 123.758 6.51387L122.931 8.9925C122.585 8.89081 122.197 8.79375 121.768 8.7013C121.336 8.60867 120.895 8.56219 120.453 8.56264C118.835 8.56264 118.026 9.63382 118.026 11.7762V12.8474H122.098L122.106 15.3277Z" fill="#252728"/>
<path d="M128.84 29.3465H125.596V6.08374H128.84V29.3465Z" fill="#252728"/>
<path d="M149.065 21.0823C149.065 23.8174 148.36 25.9298 146.952 27.4193C145.543 28.9087 143.647 29.6535 141.265 29.6535C139.878 29.6801 138.51 29.3367 137.301 28.6586C136.128 27.9754 135.181 26.9645 134.576 25.7501C133.913 24.479 133.581 22.9231 133.581 21.0823C133.581 18.3483 134.274 16.2411 135.661 14.7609C137.047 13.2807 138.945 12.5411 141.355 12.5423C142.748 12.5151 144.124 12.8584 145.341 13.5372C146.51 14.2174 147.457 15.2224 148.066 16.4301C148.732 17.6954 149.065 19.2461 149.065 21.0823ZM136.912 21.0823C136.912 22.9392 137.264 24.3883 137.968 25.4294C138.672 26.4706 139.789 26.9906 141.32 26.9894C142.85 26.9894 143.967 26.4694 144.672 25.4294C145.377 24.3894 145.729 22.9404 145.728 21.0823C145.728 19.2057 145.376 17.7613 144.672 16.749C143.969 15.7368 142.844 15.2324 141.298 15.2358C139.768 15.2358 138.655 15.7408 137.961 16.7507C137.266 17.7607 136.92 19.2045 136.921 21.0823H136.912Z" fill="#252728"/>
<path d="M166.673 29.3172L164.318 21.0823L163.827 19.2606C163.643 18.5765 163.48 17.9236 163.337 17.3019C163.193 16.6803 163.081 16.1955 163 15.8477H162.877C162.816 16.1944 162.714 16.6791 162.57 17.3019C162.427 17.9248 162.269 18.5777 162.096 19.2606C161.922 19.9447 161.754 20.5617 161.591 21.1118L159.142 29.3155H155.531L150.971 12.8179H154.277L156.419 21.1742C156.643 22.0316 156.852 22.9444 157.046 23.9128C157.241 24.8811 157.378 25.6617 157.459 26.2545H157.582C157.643 25.9078 157.73 25.4456 157.842 24.8678C157.954 24.2901 158.077 23.7123 158.209 23.1345C158.341 22.5637 158.469 22.0945 158.593 21.7271L161.225 12.8196H164.777L167.347 21.7271C167.47 22.1361 167.603 22.6209 167.746 23.1813C167.889 23.7418 168.017 24.2981 168.129 24.8505C168.245 25.4017 168.321 25.861 168.358 26.2285H168.478C168.518 25.9026 168.59 25.4537 168.693 24.8817C168.795 24.3097 168.923 23.6973 169.076 23.0444C169.228 22.3915 169.376 21.7693 169.519 21.1776L171.724 12.8213H174.998L170.384 29.3172H166.673Z" fill="#252728"/>
</g>
<defs>
<clipPath id="clip0">
<rect width="175" height="35.5831" fill="white"/>
</clipPath>
</defs>
</svg>
