<svg width="170" height="35" viewBox="0 0 170 35" fill="none" xmlns="http://www.w3.org/2000/svg">
<g clip-path="url(#clip0)">
<path d="M17.5249 21.3721L10.6466 14.5102C10.0105 13.8788 9.55371 13.0903 9.32272 12.2252C9.09174 11.3602 9.09487 10.4494 9.33178 9.58594C9.5687 8.72245 10.0309 7.93714 10.6713 7.31011C11.3117 6.68309 12.1073 6.2368 12.9769 6.01678L13.605 5.84876C13.605 4.18369 13.605 1.61635 13.605 0.957712V0L12.6436 0.141136C10.0506 0.521134 7.68115 1.81936 5.96816 3.79862C4.25517 5.77789 3.31297 8.30607 3.3137 10.9213C3.30966 12.3537 3.59033 13.7727 4.13947 15.0962C4.6886 16.4197 5.4953 17.6214 6.5129 18.6317L13.3912 25.4953C13.9393 26.0421 14.6827 26.3492 15.4578 26.349C16.2328 26.3488 16.9761 26.0415 17.524 25.4945C18.0719 24.9475 18.3797 24.2057 18.3795 23.4323C18.3794 22.6589 18.0713 21.9172 17.5232 21.3704L17.5249 21.3721Z" fill="#009ADA"/>
<path d="M28.8466 10.0812L21.9683 3.21255C20.6329 1.88328 18.9749 0.922292 17.1561 0.423425L16.097 0.132751V6.18146L16.5533 6.41332C17.0272 6.65321 17.4602 6.96622 17.8363 7.34079L24.7146 14.1977C24.9844 14.4681 25.305 14.6827 25.6581 14.8292C26.0112 14.9756 26.3898 15.0511 26.7722 15.0512C27.3494 15.0517 27.9138 14.8815 28.3942 14.5621C28.8745 14.2428 29.2493 13.7886 29.4713 13.2569C29.6932 12.7252 29.7523 12.1398 29.6411 11.5746C29.53 11.0094 29.2535 10.4897 28.8466 10.0812Z" fill="#009ADA"/>
<g style="mix-blend-mode:multiply" opacity="0.3">
<path d="M17.7252 21.5922C17.6622 21.5149 17.5953 21.4409 17.5248 21.3704L10.6466 14.5102C9.69343 13.5586 9.15799 12.2683 9.15799 10.9229C9.15799 9.57757 9.69343 8.28726 10.6466 7.33573C10.7263 7.2562 10.8088 7.17947 10.8941 7.10554C11.4935 6.58507 12.2069 6.21216 12.9769 6.01677L13.605 5.84875C13.605 4.77847 13.605 3.41583 13.605 3.06467V2.05655L12.6149 2.24137C11.0329 2.53721 9.56175 3.2584 8.36022 4.32716C7.15869 5.39592 6.27233 6.7717 5.79672 8.30615C5.3211 9.8406 5.27429 11.4755 5.66131 13.0345C6.04834 14.5936 6.85453 16.0176 7.99294 17.1531L16.8379 26.001C16.9815 25.923 17.1184 25.833 17.247 25.7322L17.3211 25.6684H17.343C17.407 25.6146 17.471 25.5591 17.5316 25.5003C18.0428 24.9883 18.3456 24.3053 18.3814 23.5834C18.4171 22.8615 18.1834 22.152 17.7252 21.5922Z" fill="#009ADA"/>
</g>
<g style="mix-blend-mode:multiply" opacity="0.3">
<path d="M24.9352 14.3976C25.4592 14.821 26.1131 15.0517 26.7873 15.0512C27.1707 15.0522 27.5505 14.9774 27.9049 14.8312C28.2592 14.685 28.5809 14.4703 28.8517 14.1993C29.0517 14.0009 29.2219 13.7745 29.3568 13.5273L20.495 4.68608C19.5708 3.75932 18.4499 3.05136 17.215 2.61439L16.097 2.21619V6.17473L16.5533 6.4066C17.0272 6.64649 17.4602 6.95949 17.8363 7.33407L24.7146 14.1977C24.7842 14.266 24.856 14.331 24.9301 14.3926L24.9352 14.3976Z" fill="#009ADA"/>
</g>
<path d="M13.147 28.0828C12.6734 27.8431 12.2405 27.5307 11.8639 27.157L4.98569 20.2934C4.43752 19.7467 3.69415 19.4396 2.91909 19.4397C2.14403 19.4399 1.40077 19.7473 0.852835 20.2943C0.304897 20.8413 -0.00284337 21.5831 -0.00268549 22.3565C-0.0025276 23.1299 0.305515 23.8715 0.853677 24.4183L7.73026 31.2802C9.06563 32.6115 10.7243 33.5743 12.5442 34.0744L13.6033 34.3651V28.3164L13.147 28.0828Z" fill="#009ADA"/>
<path d="M23.1857 15.8594L16.3075 8.99744C16.0362 8.7267 15.7141 8.51195 15.3596 8.36543C15.0051 8.21891 14.6252 8.14349 14.2415 8.14349C13.8578 8.14349 13.4778 8.21891 13.1234 8.36543C12.7689 8.51195 12.4468 8.7267 12.1755 8.99744C11.9042 9.26817 11.6889 9.58958 11.5421 9.94331C11.3953 10.297 11.3197 10.6762 11.3197 11.059C11.3197 11.4419 11.3953 11.821 11.5421 12.1748C11.6889 12.5285 11.9042 12.8499 12.1755 13.1206L19.0537 19.9826C19.6887 20.6142 20.1447 21.4025 20.3753 22.2671C20.6059 23.1317 20.603 24.0418 20.3667 24.9049C20.1305 25.7679 19.6694 26.5532 19.0303 27.1807C18.3912 27.8083 17.597 28.2558 16.7284 28.4776L16.0987 28.6457V34.5011L17.0568 34.3617C19.0615 34.0679 20.9448 33.2236 22.4963 31.9231C24.0477 30.6227 25.2062 28.9172 25.8421 26.9975C26.478 25.0778 26.5664 23.0194 26.0972 21.0524C25.6281 19.0855 24.6201 17.2875 23.1857 15.8594Z" fill="#009ADA"/>
<g style="mix-blend-mode:multiply" opacity="0.3">
<path d="M13.147 28.0828C12.6734 27.8431 12.2405 27.5307 11.8639 27.157L4.98568 20.2934C4.7149 20.022 4.3929 19.8068 4.03829 19.6603C3.68367 19.5138 3.30348 19.4389 2.91967 19.4399C2.8237 19.4399 2.72772 19.4399 2.63343 19.4533L2.53745 19.4667C2.47515 19.4667 2.41285 19.4819 2.35224 19.4936C2.29162 19.5054 2.27983 19.5121 2.24279 19.5205C2.20575 19.5289 2.13334 19.5457 2.07441 19.5608C2.01548 19.576 2.00033 19.586 1.9616 19.5995C1.92287 19.6129 1.85889 19.6331 1.80837 19.6532C1.75786 19.6734 1.73429 19.6868 1.69724 19.7037C1.6602 19.7205 1.60127 19.7473 1.55412 19.7709C1.50698 19.7944 1.48172 19.8129 1.44636 19.833C1.411 19.8532 1.35544 19.8851 1.31166 19.9137C1.26788 19.9422 1.24262 19.9641 1.20726 19.9893C1.1719 20.0145 1.12307 20.0481 1.08266 20.0817C1.04225 20.1153 1.01531 20.1405 0.981635 20.1691C0.947959 20.1976 0.889027 20.248 0.846932 20.2917C0.64681 20.4901 0.476653 20.7165 0.341797 20.9638L9.19851 29.8016C10.1227 30.7284 11.2436 31.4363 12.4785 31.8733L13.5966 32.2715V28.3063L13.147 28.0828Z" fill="#009ADA"/>
</g>
<g style="mix-blend-mode:multiply" opacity="0.3">
<path d="M20.5422 23.5698C20.5433 24.6944 20.1691 25.7874 19.4784 26.6761C18.7878 27.5648 17.8202 28.1987 16.7284 28.4776L16.0987 28.6457V32.4278L17.0887 32.243C18.6706 31.9468 20.1415 31.2255 21.3428 30.1568C22.5442 29.0881 23.4305 27.7125 23.9063 26.1782C24.382 24.6439 24.4291 23.0092 24.0425 21.4502C23.6559 19.8912 22.8503 18.467 21.7124 17.3312L12.8523 8.49338C12.6048 8.6283 12.378 8.79806 12.1788 8.99744C12.1182 9.05792 12.0626 9.12177 12.0104 9.1873L11.9818 9.21922C11.938 9.27299 11.8993 9.32844 11.8606 9.38724C11.8438 9.41076 11.8252 9.43429 11.8084 9.45781C11.7916 9.48133 11.7511 9.55358 11.7242 9.60063C11.6973 9.64767 11.6804 9.66952 11.6619 9.70648C11.6434 9.74344 11.6265 9.78377 11.608 9.82409C11.5895 9.86442 11.5626 9.91818 11.5424 9.96523C11.5222 10.0123 11.5222 10.024 11.5104 10.0543C11.4885 10.1131 11.4666 10.1719 11.4481 10.2324C11.4481 10.2576 11.4363 10.2828 11.4295 10.308C11.4127 10.3735 11.3942 10.439 11.3807 10.5063C11.3807 10.5281 11.3807 10.5516 11.3706 10.5735C11.3588 10.644 11.347 10.7129 11.3403 10.7835C11.3403 10.8087 11.3403 10.8339 11.3403 10.8574C11.3403 10.9263 11.3302 10.9935 11.3302 11.0624C11.3302 11.1044 11.3302 11.1464 11.3302 11.1901C11.3302 11.2338 11.3302 11.2926 11.3302 11.343C11.3302 11.3934 11.3487 11.4908 11.3622 11.5631C11.3622 11.5816 11.3622 11.6001 11.3622 11.6202C11.4704 12.193 11.7492 12.72 12.162 13.1324L19.0402 19.9943C19.5147 20.4619 19.8917 21.0185 20.1495 21.6322C20.4073 22.2459 20.5407 22.9044 20.5422 23.5698Z" fill="#009ADA"/>
</g>
<path d="M43.3288 7.26181C46.0442 7.26181 48.0513 7.76587 49.35 8.77399C50.6488 9.7821 51.2982 11.3156 51.2982 13.3744C51.2982 14.462 51.1 15.3772 50.7038 16.1198C50.3279 16.8376 49.7943 17.4613 49.1429 17.9445C48.5289 18.4025 47.8532 18.7719 47.1359 19.0417L53.083 28.4508H49.3955L44.2818 19.8818H40.5943V28.4508H37.38V7.26181H43.3288ZM43.1217 9.99213H40.596V17.2019H43.2733C44.9189 17.2019 46.1183 16.8905 46.8715 16.2677C47.6247 15.6449 48.0013 14.7202 48.0013 13.4937C48.0013 12.2279 47.6051 11.3279 46.8126 10.7936C46.0201 10.2593 44.7898 9.99213 43.1217 9.99213Z" fill="#F5F5F5"/>
<path d="M62.657 12.1579C64.6584 12.1579 66.1598 12.5981 67.1611 13.4785C68.1624 14.359 68.663 15.739 68.663 17.6185V28.4491H66.4337L65.809 26.2245H65.6895C65.0987 27.0051 64.3537 27.6565 63.5006 28.1383C62.7372 28.5437 61.6815 28.7465 60.3334 28.7465C58.8864 28.7465 57.687 28.3544 56.7351 27.5703C55.7832 26.7863 55.3073 25.5648 55.3073 23.9058C55.3073 22.2649 55.9246 21.0237 57.1594 20.1825C58.3942 19.3413 60.2823 18.8815 62.8237 18.8031L65.5598 18.714V17.8235C65.5598 16.6564 65.2921 15.8303 64.7567 15.3452C64.2212 14.8602 63.4719 14.6177 62.5088 14.6177C61.7093 14.6143 60.9141 14.7345 60.1515 14.9739C59.408 15.2075 58.6826 15.495 57.9811 15.8342L56.9708 13.5491C57.7992 13.1243 58.6715 12.7908 59.5723 12.5544C60.5781 12.2852 61.6156 12.1519 62.657 12.1579ZM65.5413 20.7622L63.3995 20.821C61.5754 20.9005 60.3115 21.2069 59.6076 21.7401C59.2659 21.9927 58.991 22.3248 58.807 22.7075C58.6231 23.0902 58.5355 23.5119 58.5519 23.9361C58.5519 24.7672 58.7994 25.3704 59.2945 25.7457C59.7895 26.1209 60.4338 26.3091 61.2274 26.3102C62.4566 26.3102 63.4826 25.9641 64.3054 25.2718C65.1282 24.5796 65.5396 23.5412 65.5396 22.1568L65.5413 20.7622Z" fill="#F5F5F5"/>
<path d="M77.2571 5.89749V11.3279C77.2571 11.9608 77.2425 12.5768 77.2133 13.1761C77.1841 13.7754 77.1493 14.2352 77.1089 14.5555H77.2571C77.7378 13.8634 78.3678 13.2875 79.1008 12.8703C79.8743 12.4155 80.8756 12.1881 82.1047 12.1881C84.0276 12.1881 85.5789 12.8804 86.7587 14.2649C87.9385 15.6494 88.5284 17.7065 88.5284 20.4362C88.5284 23.1862 87.9334 25.2584 86.7435 26.653C85.5537 28.0475 83.9973 28.7448 82.0744 28.7448C80.8396 28.7448 79.8434 28.5208 79.0857 28.0727C78.3743 27.6731 77.752 27.1328 77.2571 26.4849H77.0197L76.4253 28.4424H74.105V5.89749H77.2571ZM81.3605 14.7387C79.8339 14.7387 78.7731 15.1867 78.1781 16.0828C77.5832 16.9789 77.2762 18.3584 77.2571 20.2212V20.4581C77.2571 22.2973 77.5495 23.707 78.1343 24.6871C78.7192 25.6672 79.8142 26.1567 81.4194 26.1556C82.7081 26.1556 83.6746 25.6611 84.3189 24.672C84.9632 23.6829 85.2854 22.2587 85.2854 20.3993C85.2854 16.6255 83.9771 14.7387 81.3605 14.7387Z" fill="#F5F5F5"/>
<path d="M99.3433 12.1579C101.345 12.1579 102.846 12.5981 103.847 13.4785C104.849 14.359 105.349 15.739 105.349 17.6185V28.4491H103.127L102.502 26.2245H102.383C101.792 27.0051 101.047 27.6565 100.194 28.1383C99.4303 28.5437 98.3746 28.7465 97.0264 28.7465C95.5795 28.7465 94.3801 28.3544 93.4282 27.5703C92.4763 26.7863 92.0004 25.5648 92.0004 23.9058C92.0004 22.2648 92.6178 21.0237 93.8525 20.1825C95.0873 19.3413 96.9754 18.8815 99.5168 18.8031L102.253 18.714V17.8235C102.253 16.6564 101.985 15.8303 101.45 15.3452C100.914 14.8602 100.165 14.6177 99.2019 14.6177C98.4024 14.6143 97.6072 14.7345 96.8446 14.9739C96.1011 15.2075 95.3757 15.495 94.6742 15.8342L93.6639 13.5491C94.4923 13.1243 95.3646 12.7908 96.2654 12.5544C97.269 12.2858 98.3042 12.1525 99.3433 12.1579ZM102.228 20.7622L100.086 20.821C98.2618 20.9005 96.9978 21.2069 96.294 21.7401C95.9522 21.9927 95.6774 22.3248 95.4934 22.7075C95.3094 23.0902 95.2219 23.5119 95.2383 23.9361C95.2383 24.7672 95.4858 25.3704 95.9808 25.7457C96.4759 26.1209 97.1202 26.3091 97.9138 26.3102C99.143 26.3102 100.169 25.9641 100.992 25.2718C101.815 24.5796 102.226 23.5412 102.226 22.1568L102.228 20.7622Z" fill="#F5F5F5"/>
<path d="M118.618 14.858H114.666V28.4474H111.512V14.858H108.805V13.3744L111.51 12.3948V11.3867C111.51 9.34918 111.981 7.90029 112.923 7.04003C113.865 6.17977 115.178 5.74964 116.863 5.74964C117.502 5.74443 118.139 5.8041 118.766 5.92774C119.259 6.02518 119.746 6.15427 120.222 6.31419L119.419 8.71687C119.082 8.6183 118.706 8.52421 118.289 8.4346C117.869 8.34481 117.441 8.29975 117.011 8.30018C115.44 8.30018 114.654 9.33854 114.654 11.4153V12.4536H118.609L118.618 14.858Z" fill="#F5F5F5"/>
<path d="M125.159 28.4474H122.007V5.89749H125.159V28.4474Z" fill="#F5F5F5"/>
<path d="M144.806 20.4362C144.806 23.0876 144.121 25.1352 142.753 26.579C141.385 28.0229 139.543 28.7448 137.229 28.7448C135.882 28.7706 134.553 28.4377 133.378 27.7804C132.239 27.1182 131.319 26.1382 130.731 24.961C130.086 23.7289 129.764 22.2206 129.764 20.4362C129.764 17.786 130.438 15.7435 131.785 14.3086C133.132 12.8737 134.976 12.1568 137.316 12.1579C138.67 12.1316 140.006 12.4644 141.189 13.1223C142.325 13.7817 143.244 14.7559 143.836 15.9266C144.482 17.1531 144.806 18.6564 144.806 20.4362ZM133.001 20.4362C133.001 22.2363 133.342 23.6409 134.026 24.6502C134.71 25.6594 135.795 26.1635 137.282 26.1624C138.769 26.1624 139.854 25.6583 140.539 24.6502C141.224 23.6421 141.565 22.2374 141.564 20.4362C141.564 18.6172 141.222 17.217 140.539 16.2358C139.855 15.2545 138.762 14.7656 137.261 14.7689C135.774 14.7689 134.694 15.2584 134.019 16.2374C133.345 17.2164 133.008 18.616 133.009 20.4362H133.001Z" fill="#F5F5F5"/>
<path d="M161.911 28.4188L159.623 20.4362L159.146 18.6703C158.968 18.0072 158.809 17.3743 158.67 16.7717C158.531 16.1691 158.422 15.6992 158.343 15.362H158.224C158.164 15.6981 158.065 16.168 157.926 16.7717C157.786 17.3755 157.633 18.0083 157.464 18.6703C157.296 19.3335 157.133 19.9316 156.974 20.4648L154.595 28.4172H151.088L146.658 12.425H149.869L151.95 20.5253C152.168 21.3564 152.371 22.2413 152.559 23.18C152.748 24.1187 152.882 24.8753 152.96 25.4499H153.08C153.139 25.1139 153.223 24.6658 153.332 24.1058C153.441 23.5457 153.56 22.9856 153.689 22.4256C153.817 21.8722 153.941 21.4175 154.061 21.0613L156.619 12.4267H160.069L162.566 21.0613C162.685 21.4578 162.814 21.9277 162.953 22.4709C163.093 23.0142 163.217 23.5535 163.325 24.089C163.438 24.6233 163.512 25.0685 163.548 25.4247H163.664C163.703 25.1088 163.773 24.6737 163.873 24.1192C163.973 23.5647 164.097 22.9711 164.245 22.3382C164.393 21.7053 164.537 21.1021 164.676 20.5286L166.818 12.4284H169.998L165.516 28.4188H161.911Z" fill="#F5F5F5"/>
</g>
<defs>
<clipPath id="clip0">
<rect width="170" height="34.4928" fill="white"/>
</clipPath>
</defs>
</svg>
