<svg width="33" height="32" viewBox="0 0 33 32" fill="none" xmlns="http://www.w3.org/2000/svg">
<path opacity="0.15" d="M16.3229 32C25.2515 32 32.4896 24.8366 32.4896 16C32.4896 7.16344 25.2515 0 16.3229 0C7.39431 0 0.15625 7.16344 0.15625 16C0.15625 24.8366 7.39431 32 16.3229 32Z" fill="#0AC876"/>
<path d="M10.4639 20.8228L14.2132 24.5334V22.3068C16.2016 22.3068 18.1086 21.525 19.5146 20.1335C20.9206 18.742 21.7105 16.8547 21.7105 14.8868C21.7105 12.9189 20.9206 11.0316 19.5146 9.64005C18.1086 8.24853 16.2016 7.46678 14.2132 7.46678C15.0156 7.44297 15.8147 7.57882 16.5631 7.86628C17.3115 8.15375 17.9939 8.58698 18.57 9.14029C19.1461 9.6936 19.6041 10.3557 19.9169 11.0875C20.2296 11.8192 20.3908 12.6056 20.3908 13.4001C20.3908 14.1946 20.2296 14.981 19.9169 15.7128C19.6041 16.4445 19.1461 17.1066 18.57 17.6599C17.9939 18.2132 17.3115 18.6465 16.5631 18.9339C15.8147 19.2214 15.0156 19.3573 14.2132 19.3334V17.1134L10.4639 20.8228Z" fill="#0AC876"/>
</svg>
