<svg width="33" height="32" viewBox="0 0 33 32" fill="none" xmlns="http://www.w3.org/2000/svg">
<path opacity="0.15" d="M16.3229 0C7.39429 0 0.156227 7.16344 0.156227 16C0.156227 24.8366 7.39429 32 16.3229 32C25.2515 32 32.4896 24.8366 32.4896 16C32.4896 7.16344 25.2515 0 16.3229 0Z" fill="#FF3100"/>
<path d="M22.1819 11.1772L18.4326 7.46655V9.69322C16.4442 9.69322 14.5373 10.475 13.1312 11.8665C11.7252 13.258 10.9353 15.1453 10.9353 17.1132C10.9353 19.0811 11.7252 20.9684 13.1312 22.36C14.5373 23.7515 16.4442 24.5332 18.4326 24.5332C17.6302 24.557 16.8311 24.4212 16.0827 24.1337C15.3344 23.8463 14.6519 23.413 14.0758 22.8597C13.4997 22.3064 13.0417 21.6443 12.7289 20.9125C12.4162 20.1808 12.255 19.3944 12.255 18.5999C12.255 17.8054 12.4162 17.019 12.7289 16.2872C13.0417 15.5555 13.4997 14.8934 14.0758 14.3401C14.6519 13.7868 15.3344 13.3535 16.0827 13.0661C16.8311 12.7786 17.6302 12.6427 18.4326 12.6666V14.8866L22.1819 11.1772Z" fill="#FF3100"/>
</svg>
