<svg width="48" height="48" viewBox="0 0 48 48" fill="none" xmlns="http://www.w3.org/2000/svg">
<g clip-path="url(#clip0)">
<path d="M21.3486 22.3164H26.978V13.8745H18.535V16.687H24.1655V19.5039H18.5361V27.9458H26.9791V25.1333H21.3486V22.3164Z" fill="#009ADA"/>
<path d="M38.2368 27.947V13.8735H35.4247V19.504H32.6074V13.8735H29.7949V22.3165H35.4247V27.947H38.2368Z" fill="#009ADA"/>
<path d="M39.3113 10.7719L37.3228 8.78296L39.9763 6.12939L41.9648 8.11792L39.3113 10.7719Z" fill="#FFA883"/>
<path d="M31.8856 1.3833L34.4839 2.45959L33.0476 5.92725L30.4493 4.85059L31.8856 1.3833Z" fill="#FFA883"/>
<path d="M22.5934 0.09375H25.4059V3.84668H22.5934V0.09375Z" fill="#FFA883"/>
<path d="M14.952 5.92566L13.5157 2.45837L16.1144 1.38208L17.5507 4.84937L14.952 5.92566Z" fill="#FFA883"/>
<path d="M8.68835 10.7714L6.03479 8.1178L8.02368 6.12891L10.6772 8.78284L8.68835 10.7714Z" fill="#FFA883"/>
<path d="M39.9763 42.0597L37.3224 39.4058L39.3113 37.4172L41.9648 40.0708L39.9763 42.0597Z" fill="#FFA883"/>
<path d="M45.6346 34.5764L42.167 33.1401L43.2433 30.5415L46.7109 31.9778L45.6346 34.5764Z" fill="#FFA883"/>
<path d="M44.2471 22.688H48V25.5005H44.2471V22.688Z" fill="#FFA883"/>
<path d="M45.6357 13.6113L46.712 16.21L43.2448 17.6462L42.1685 15.0476L45.6357 13.6113Z" fill="#FFA883"/>
<path d="M21.4072 37.0637V40.5219C18.0051 39.6891 14.9623 37.9309 12.5621 35.5308L8.15735 36.0918L7.58313 40.5098C12.2684 45.1951 18.7408 48.0929 25.89 48.0929H31.4048V37.0637H21.4072Z" fill="#C1DDF7"/>
<path d="M7.57104 26.6858H11.0292V16.6882H0V22.203C0 29.3522 2.89783 35.8246 7.58313 40.5099L12.5621 35.5309C10.1616 33.1307 8.40381 30.0879 7.57104 26.6858Z" fill="#C1DDF7"/>
</g>
<defs>
<clipPath id="clip0">
<rect width="48" height="48" fill="white"/>
</clipPath>
</defs>
</svg>
