<svg width="38" height="48" viewBox="0 0 38 48" fill="none" xmlns="http://www.w3.org/2000/svg">
<path d="M31.1199 15.4574H27.6892H10.3859H6.91771H6.37405C5.5372 15.4525 4.70767 15.6112 3.93333 15.9243C3.159 16.2373 2.45521 16.6986 1.86259 17.2815C1.26997 17.8643 0.800266 18.5572 0.480596 19.3201C0.160926 20.083 -0.00237831 20.9008 0.000112268 21.7262V41.1616C-0.00486401 41.9837 0.155636 42.7987 0.472309 43.5593C0.788983 44.3198 1.25553 45.0108 1.84492 45.5922C2.43431 46.1735 3.13481 46.6338 3.90583 46.9461C4.67685 47.2585 5.50305 47.4168 6.33655 47.4119H31.1199C31.9566 47.4218 32.7868 47.2671 33.5622 46.9569C34.3375 46.6468 35.0425 46.1873 35.6359 45.6054C36.2293 45.0236 36.6992 44.3309 37.0182 43.5679C37.3372 42.8049 37.4989 41.9869 37.4938 41.1616V21.7262C37.4963 20.9008 37.333 20.083 37.0134 19.3201C36.6937 18.5572 36.224 17.8643 35.6314 17.2815C35.0387 16.6986 34.335 16.2373 33.5606 15.9243C32.7863 15.6112 31.9568 15.4525 31.1199 15.4574ZM34.0257 41.1616C34.0257 41.5371 33.9504 41.9089 33.8041 42.2556C33.6579 42.6024 33.4435 42.9171 33.1735 43.1818C32.9034 43.4465 32.5829 43.6559 32.2305 43.7979C31.878 43.9399 31.5006 44.0118 31.1199 44.0093H6.37405C5.99334 44.0118 5.61591 43.9399 5.26347 43.7979C4.91104 43.6559 4.59056 43.4465 4.32049 43.1818C4.05041 42.9171 3.83608 42.6024 3.68982 42.2556C3.54357 41.9089 3.46828 41.5371 3.46828 41.1616V21.7262C3.46828 21.3507 3.54357 20.9789 3.68982 20.6321C3.83608 20.2854 4.05041 19.9707 4.32049 19.706C4.59056 19.4413 4.91104 19.2319 5.26347 19.0899C5.61591 18.9479 5.99334 18.876 6.37405 18.8784H31.1199C31.8873 18.8784 32.6236 19.1779 33.168 19.7114C33.7124 20.245 34.0207 20.9693 34.0257 21.7262V41.1616Z" fill="#009ADA"/>
<path d="M18.747 26.5526C18.5198 26.5501 18.2944 26.5924 18.084 26.6771C17.8736 26.7617 17.6825 26.8869 17.5218 27.0454C17.3612 27.2038 17.2342 27.3924 17.1484 27.5999C17.0626 27.8074 17.0197 28.0298 17.0223 28.2539V35.3549C17.0223 35.8061 17.204 36.2388 17.5274 36.5579C17.8509 36.8769 18.2895 37.0562 18.747 37.0562C19.2044 37.0562 19.6431 36.8769 19.9665 36.5579C20.29 36.2388 20.4717 35.8061 20.4717 35.3549V28.2539C20.4717 27.8027 20.29 27.3699 19.9665 27.0509C19.6431 26.7318 19.2044 26.5526 18.747 26.5526Z" fill="#009ADA"/>
<path d="M18.747 37.3521C20.5381 37.3521 21.9902 35.9198 21.9902 34.1531C21.9902 32.3863 20.5381 30.9541 18.747 30.9541C16.9558 30.9541 15.5038 32.3863 15.5038 34.1531C15.5038 35.9198 16.9558 37.3521 18.747 37.3521Z" fill="#009ADA"/>
<path d="M31.1199 12.4804V15.4021H27.6892V12.4804C27.7437 11.3263 27.5603 10.1732 27.1501 9.09102C26.7399 8.00882 26.1114 7.01994 25.3026 6.18418C24.4939 5.34842 23.5217 4.68317 22.4448 4.22864C21.368 3.77411 20.2088 3.53976 19.0375 3.53976C17.8662 3.53976 16.7071 3.77411 15.6303 4.22864C14.5534 4.68317 13.5812 5.34842 12.7725 6.18418C11.9637 7.01994 11.3352 8.00882 10.925 9.09102C10.5148 10.1732 10.3314 11.3263 10.3859 12.4804V15.4021H6.9177V12.4804C6.85356 10.8733 7.11907 9.27004 7.69831 7.76665C8.27754 6.26326 9.15858 4.89073 10.2886 3.73134C11.4186 2.57195 12.7743 1.64957 14.2745 1.01952C15.7746 0.389462 17.3883 0.0646973 19.0188 0.0646973C20.6493 0.0646973 22.263 0.389462 23.7631 1.01952C25.2633 1.64957 26.619 2.57195 27.749 3.73134C28.879 4.89073 29.7601 6.26326 30.3393 7.76665C30.9185 9.27004 31.184 10.8733 31.1199 12.4804Z" fill="#009ADA"/>
</svg>
