<svg width="436" height="436" viewBox="0 0 436 436" fill="none" xmlns="http://www.w3.org/2000/svg">
<path d="M218 0C218 0 167.883 60.1379 52.6207 60.1379V203.604C52.6207 278.521 85.1553 350.77 144.06 397.061C164.906 413.448 189.495 427.543 218 436C246.505 427.543 271.087 413.448 291.94 397.061C350.845 350.77 383.379 278.521 383.379 203.604V60.1379C268.117 60.1379 218 0 218 0Z" fill="#072042"/>
<path d="M218 388.348C202.041 382.086 186.593 373.126 171.934 361.602C125.463 325.083 97.7241 266.02 97.7241 203.605V102.445C153.284 95.3563 192.735 76.0295 218 58.8601C243.265 76.0295 282.716 95.3563 338.276 102.445V203.605C338.276 266.02 310.537 325.083 264.073 361.602C249.407 373.126 233.959 382.086 218 388.348Z" fill="#009ADA"/>
<path d="M231.913 239.514L196.127 203.727C192.819 200.433 190.444 196.322 189.243 191.811C188.042 187.3 188.059 182.552 189.292 178.05C190.524 173.548 192.928 169.453 196.259 166.183C199.59 162.913 203.728 160.584 208.252 159.435L211.523 158.606C211.523 149.883 211.523 136.536 211.523 133.091V128.042L206.54 128.773C196.114 130.309 186.321 134.712 178.253 141.492C170.184 148.271 164.159 157.16 160.85 167.165C157.541 177.17 157.077 187.898 159.511 198.151C161.945 208.404 167.182 217.779 174.635 225.229L210.367 261.027C213.238 263.793 217.079 265.322 221.065 265.285C225.051 265.247 228.863 263.647 231.681 260.827C234.499 258.008 236.098 254.195 236.133 250.209C236.168 246.223 234.637 242.382 231.87 239.514H231.913Z" fill="#D7E8F7"/>
<path d="M290.849 180.588L255.074 144.802C248.113 137.864 239.472 132.852 229.994 130.256L224.542 128.729V160.209L226.919 161.419C229.384 162.673 231.636 164.306 233.593 166.261L269.38 202.058C270.789 203.473 272.465 204.595 274.31 205.358C276.156 206.122 278.134 206.512 280.131 206.507C283.14 206.511 286.083 205.621 288.586 203.95C291.089 202.279 293.04 199.903 294.192 197.123C295.343 194.342 295.643 191.282 295.054 188.331C294.465 185.38 293.013 182.67 290.882 180.545L290.849 180.588Z" fill="#D7E8F7"/>
<g style="mix-blend-mode:multiply" opacity="0.3">
<path d="M232.96 240.669C232.617 240.266 232.253 239.88 231.87 239.514L196.127 203.727C191.165 198.764 188.377 192.033 188.377 185.015C188.377 177.998 191.165 171.267 196.127 166.304C196.541 165.89 196.97 165.49 197.413 165.105C200.533 162.394 204.245 160.452 208.252 159.435L211.523 158.606C211.523 153.023 211.523 145.914 211.523 144.082V138.837L206.376 139.797C198.144 141.342 190.489 145.105 184.237 150.68C177.985 156.255 173.374 163.431 170.899 171.433C168.424 179.436 168.18 187.962 170.193 196.093C172.206 204.224 176.4 211.651 182.322 217.575L228.413 263.666C229.16 263.257 229.871 262.787 230.54 262.259L230.921 261.932C231.259 261.649 231.586 261.354 231.903 261.049C234.562 258.381 236.142 254.824 236.337 251.062C236.532 247.3 235.33 243.598 232.96 240.669Z" fill="#D7E8F7"/>
</g>
<g style="mix-blend-mode:multiply" opacity="0.3">
<path d="M270.492 203.138C273.205 205.34 276.592 206.545 280.087 206.551C282.082 206.556 284.058 206.167 285.901 205.406C287.744 204.644 289.419 203.525 290.828 202.113C291.857 201.077 292.731 199.898 293.423 198.613L247.375 152.478C242.566 147.646 236.735 143.954 230.311 141.672L224.542 139.6V160.209L226.919 161.419C229.384 162.673 231.636 164.306 233.593 166.261L269.38 202.058C269.736 202.415 270.099 202.753 270.47 203.072L270.492 203.138Z" fill="#D7E8F7"/>
</g>
<path d="M209.135 274.515C206.668 273.265 204.412 271.635 202.451 269.685L166.664 233.898C163.795 231.13 159.955 229.6 155.969 229.635C151.982 229.67 148.17 231.269 145.35 234.087C142.531 236.905 140.93 240.717 140.893 244.703C140.856 248.689 142.384 252.53 145.151 255.401L180.926 291.198C187.883 298.148 196.525 303.171 206.006 305.777L211.512 307.293V275.726L209.135 274.515Z" fill="#D7E8F7"/>
<path d="M261.376 210.76L225.633 174.973C224.221 173.557 222.544 172.434 220.698 171.667C218.852 170.899 216.873 170.503 214.873 170.5C212.874 170.498 210.894 170.889 209.046 171.652C207.198 172.415 205.518 173.534 204.103 174.946C202.687 176.358 201.564 178.034 200.796 179.881C200.029 181.727 199.633 183.706 199.63 185.705C199.625 189.743 201.224 193.617 204.076 196.476L239.873 232.273C243.177 235.565 245.551 239.673 246.754 244.179C247.956 248.685 247.944 253.43 246.719 257.93C245.494 262.43 243.1 266.526 239.779 269.801C236.459 273.076 232.33 275.413 227.814 276.576L224.542 277.416V307.947L229.526 307.216C239.951 305.678 249.744 301.273 257.812 294.492C265.879 287.712 271.904 278.822 275.213 268.817C278.522 258.811 278.986 248.083 276.552 237.83C274.118 227.576 268.883 218.2 261.431 210.749L261.376 210.76Z" fill="#D7E8F7"/>
<g style="mix-blend-mode:multiply" opacity="0.3">
<path d="M209.135 274.515C206.668 273.265 204.412 271.635 202.451 269.685L166.664 233.898C165.255 232.483 163.579 231.361 161.734 230.597C159.888 229.834 157.91 229.444 155.913 229.449C155.411 229.449 154.91 229.449 154.419 229.526L153.928 229.591C153.601 229.591 153.285 229.667 152.958 229.733L152.391 229.874C152.107 229.94 151.813 230.005 151.54 230.093L150.951 230.3C150.69 230.387 150.417 230.474 150.155 230.583L149.578 230.845C149.327 230.954 149.076 231.074 148.836 231.194L148.269 231.521C148.029 231.663 147.8 231.794 147.571 231.935C147.342 232.077 147.211 232.197 147.026 232.328C146.841 232.459 146.59 232.633 146.383 232.808C146.175 232.982 146.034 233.113 145.859 233.266C145.685 233.418 145.379 233.68 145.151 233.909C144.106 234.956 143.221 236.15 142.523 237.453L188.614 283.533C193.427 288.362 199.262 292.051 205.689 294.328L211.512 296.4V275.682L209.135 274.515Z" fill="#D7E8F7"/>
</g>
<g style="mix-blend-mode:multiply" opacity="0.3">
<path d="M247.626 250.985C247.632 256.844 245.689 262.539 242.102 267.173C238.515 271.806 233.488 275.114 227.814 276.576L224.542 277.416V297.196L229.7 296.236C237.933 294.692 245.589 290.93 251.843 285.356C258.096 279.781 262.709 272.606 265.185 264.603C267.661 256.601 267.906 248.074 265.894 239.942C263.881 231.81 259.688 224.382 253.765 218.458L207.598 172.345C206.303 173.047 205.117 173.932 204.076 174.973C203.759 175.289 203.465 175.627 203.181 175.954L203.029 176.118C202.8 176.401 202.604 176.685 202.396 176.979C202.309 177.099 202.211 177.219 202.124 177.35C202.037 177.481 201.829 177.852 201.688 178.102C201.546 178.353 201.459 178.462 201.36 178.648C201.262 178.833 201.175 179.051 201.077 179.258C200.979 179.465 200.837 179.749 200.739 180C200.641 180.25 200.63 180.305 200.575 180.469C200.521 180.632 200.346 181.079 200.248 181.395C200.248 181.526 200.183 181.657 200.15 181.788C200.063 182.126 199.965 182.475 199.899 182.824C199.899 182.944 199.899 183.053 199.899 183.173C199.834 183.533 199.779 183.903 199.747 184.263C199.747 184.394 199.747 184.525 199.747 184.656C199.747 185.015 199.747 185.364 199.747 185.746C199.747 186.128 199.747 186.182 199.747 186.411C199.747 186.64 199.747 186.945 199.747 187.207C199.747 187.469 199.845 187.97 199.91 188.363C199.91 188.461 199.91 188.559 199.91 188.657C200.481 191.632 201.932 194.368 204.076 196.508L239.873 232.306C242.335 234.753 244.287 237.664 245.618 240.87C246.948 244.076 247.631 247.514 247.626 250.985Z" fill="#D7E8F7"/>
</g>
</svg>
