<svg width="38" height="49" viewBox="0 0 38 49" fill="none" xmlns="http://www.w3.org/2000/svg">
<path d="M6.36593 10.8469V15.691C6.36089 17.1804 6.7148 18.6496 7.39847 19.9776C8.08214 21.3055 9.07599 22.4542 10.2981 23.3289" stroke="#C1DDF7" stroke-width="1.5" stroke-miterlimit="10" stroke-linecap="round"/>
<path d="M27.5251 26.6438C29.0019 27.5436 30.2211 28.8008 31.067 30.296C31.9128 31.7912 32.3572 33.4749 32.358 35.1872V47.9082" stroke="#C1DDF7" stroke-width="1.5" stroke-miterlimit="10" stroke-linecap="round"/>
<path d="M32.4013 47.908L37.1216 43.2522" stroke="#C1DDF7" stroke-width="1.5" stroke-miterlimit="10" stroke-linecap="round"/>
<path d="M32.4013 47.908L27.6723 43.2522" stroke="#C1DDF7" stroke-width="1.5" stroke-miterlimit="10" stroke-linecap="round"/>
<path d="M32.4013 1.56885L27.6723 6.2251" stroke="#C1DDF7" stroke-width="1.5" stroke-miterlimit="10" stroke-linecap="round"/>
<path d="M32.4013 1.56885L37.1216 6.2251" stroke="#C1DDF7" stroke-width="1.5" stroke-miterlimit="10" stroke-linecap="round"/>
<path d="M22.2418 25.1655H15.9625C13.4157 25.1678 10.9739 26.1667 9.1731 27.9431C7.37227 29.7194 6.35956 32.128 6.35727 34.6402V41.6116" stroke="#C1DDF7" stroke-width="1.5" stroke-miterlimit="10" stroke-linecap="round"/>
<path d="M32.4013 1.56885V15.1442C32.4013 16.4602 32.1385 17.7634 31.628 18.9792C31.1174 20.195 30.3691 21.2998 29.4257 22.2303C28.4823 23.1609 27.3623 23.8991 26.1297 24.4027C24.8971 24.9063 23.576 25.1655 22.2418 25.1655" stroke="#C1DDF7" stroke-width="1.5" stroke-miterlimit="10" stroke-linecap="round"/>
<path d="M6.36594 48.4124C9.88175 48.4124 12.7319 45.6009 12.7319 42.1328C12.7319 38.6647 9.88175 35.8533 6.36594 35.8533C2.85013 35.8533 0 38.6647 0 42.1328C0 45.6009 2.85013 48.4124 6.36594 48.4124Z" fill="#009ADA"/>
<path d="M10.5233 1.0647H2.19127C1.53116 1.0647 0.996033 1.59255 0.996033 2.24368V10.4624C0.996033 11.1135 1.53116 11.6414 2.19127 11.6414H10.5233C11.1834 11.6414 11.7185 11.1135 11.7185 10.4624V2.24368C11.7185 1.59255 11.1834 1.0647 10.5233 1.0647Z" fill="#FFA883"/>
</svg>
