<svg width="39" height="48" viewBox="0 0 39 48" fill="none" xmlns="http://www.w3.org/2000/svg">
<path d="M29.4779 13.969L28.0814 13.0928L30.5355 9.28809L31.9321 10.1643L29.4779 13.969Z" fill="#D7E8F7"/>
<path d="M32.7243 11.1459L33.169 10.4568C33.4145 10.0765 33.3009 9.57199 32.9153 9.32981L30.8865 8.05578C30.5009 7.81369 29.9894 7.92567 29.7439 8.306L29.2991 8.99508C29.0537 9.3754 29.1672 9.87991 29.5528 10.1221L31.5817 11.3961C31.9673 11.6382 32.4787 11.5262 32.7243 11.1459Z" fill="#C1DDF7"/>
<path d="M8.59109 13.969L6.1369 10.1643L7.5335 9.28809L9.98759 13.0928L8.59109 13.969Z" fill="#D7E8F7"/>
<path d="M19.0345 9.86108C16.2963 9.86108 14.0689 7.66397 14.0689 4.96284C14.0689 2.26172 16.2963 0.0646973 19.0345 0.0646973C21.7726 0.0646973 24 2.26181 24 4.96294C24 7.66406 21.7726 9.86108 19.0345 9.86108ZM19.0345 1.69741C17.2088 1.69741 15.7242 3.162 15.7242 4.96284C15.7242 6.76369 17.2089 8.22828 19.0345 8.22828C20.8601 8.22828 22.3448 6.76369 22.3448 4.96284C22.3448 3.162 20.8602 1.69741 19.0345 1.69741Z" fill="#C1DDF7"/>
<path d="M19.862 5.7793H18.2068V10.6772H19.862V5.7793Z" fill="#C1DDF7"/>
<path d="M19.0344 47.4121C29.5469 47.4121 38.0689 39.006 38.0689 28.6365C38.0689 18.267 29.5469 9.86084 19.0344 9.86084C8.52201 9.86084 0 18.267 0 28.6365C0 39.006 8.52201 47.4121 19.0344 47.4121Z" fill="#C1DDF7"/>
<path d="M20.2758 6.59546H17.793C17.336 6.59546 16.9654 6.22989 16.9654 5.77905V4.96265C16.9654 4.51181 17.336 4.14624 17.793 4.14624H20.2758C20.7328 4.14624 21.1034 4.51181 21.1034 4.96265V5.77905C21.1034 6.22989 20.7328 6.59546 20.2758 6.59546Z" fill="#C1DDF7"/>
<path d="M19.0344 45.7795C28.6328 45.7795 36.4137 38.1044 36.4137 28.6366C36.4137 19.1688 28.6328 11.4937 19.0344 11.4937C9.43612 11.4937 1.65515 19.1688 1.65515 28.6366C1.65515 38.1044 9.43612 45.7795 19.0344 45.7795Z" fill="#D7E8F7"/>
<path d="M19.0344 44.147C27.7186 44.147 34.7586 37.2027 34.7586 28.6366C34.7586 20.0705 27.7186 13.1262 19.0344 13.1262C10.3502 13.1262 3.3103 20.0705 3.3103 28.6366C3.3103 37.2027 10.3502 44.147 19.0344 44.147Z" fill="white"/>
<path d="M27.8123 37.2949C30.0587 35.0791 31.4483 32.0179 31.4483 28.6365C31.4483 21.8739 25.8904 16.3916 19.0345 16.3916V28.6365L27.8123 37.2949Z" fill="#C1DDF7"/>
<path d="M5.34464 11.1459L4.89989 10.4568C4.65445 10.0765 4.76799 9.57199 5.15358 9.32981L7.18243 8.05578C7.56802 7.81369 8.07952 7.92567 8.32505 8.306L8.7698 8.99508C9.01524 9.3754 8.90171 9.87991 8.51611 10.1221L6.48727 11.3961C6.10158 11.6382 5.59008 11.5262 5.34464 11.1459Z" fill="#C1DDF7"/>
<path d="M19.0345 14.7585C18.5774 14.7585 18.2068 15.1241 18.2068 15.575V17.2077C18.2068 17.6586 18.5774 18.0242 19.0345 18.0242C19.4915 18.0242 19.8621 17.6586 19.8621 17.2077V15.575C19.8621 15.124 19.4915 14.7585 19.0345 14.7585Z" fill="#03345F"/>
<path d="M19.0345 39.249C18.5775 39.249 18.2069 39.6146 18.2069 40.0654V41.698C18.2069 42.1489 18.5775 42.5144 19.0345 42.5144C19.4916 42.5144 19.8622 42.1489 19.8622 41.698V40.0654C19.8622 39.6146 19.4916 39.249 19.0345 39.249Z" fill="#03345F"/>
<path d="M33.1035 28.6366C33.1035 28.1858 32.7329 27.8203 32.2759 27.8203H30.6207C30.1637 27.8203 29.7931 28.1858 29.7931 28.6366C29.7931 29.0874 30.1637 29.4529 30.6207 29.4529H32.2759C32.7329 29.4528 33.1035 29.0874 33.1035 28.6366Z" fill="#03345F"/>
<path d="M8.2758 28.6366C8.2758 28.1858 7.90521 27.8203 7.44818 27.8203H5.79302C5.33599 27.8203 4.96539 28.1858 4.96539 28.6366C4.96539 29.0874 5.33599 29.4529 5.79302 29.4529H7.44818C7.9053 29.4528 8.2758 29.0874 8.2758 28.6366Z" fill="#03345F"/>
<path d="M12.0001 40.6551C12.3959 40.8806 12.902 40.7468 13.1305 40.3563L13.9581 38.9425C14.1867 38.552 14.051 38.0528 13.6552 37.8273C13.2594 37.6018 12.7532 37.7356 12.5248 38.1261L11.6971 39.54C11.4686 39.9304 11.6042 40.4297 12.0001 40.6551Z" fill="#03345F"/>
<path d="M24.4137 19.4457C24.8096 19.6711 25.3157 19.5373 25.5443 19.1469L26.3719 17.7331C26.6005 17.3427 26.4648 16.8434 26.069 16.6181C25.6732 16.3926 25.167 16.5264 24.9385 16.9168L24.1108 18.3306C23.8824 18.7211 24.018 19.2203 24.4137 19.4457Z" fill="#03345F"/>
<path d="M6.85041 21.6976C6.62184 22.0881 6.7575 22.5874 7.15331 22.8128L8.58666 23.6292C8.98247 23.8547 9.48863 23.7209 9.7171 23.3304C9.94566 22.94 9.81 22.4406 9.41419 22.2152L7.98085 21.3988C7.58503 21.1734 7.07888 21.3071 6.85041 21.6976Z" fill="#03345F"/>
<path d="M28.3517 33.9425C28.1232 34.333 28.2588 34.8324 28.6547 35.0579L30.088 35.8744C30.4838 36.0998 30.99 35.966 31.2184 35.5755C31.447 35.185 31.3113 34.6857 30.9155 34.4602L29.4822 33.6437C29.0864 33.4182 28.5803 33.5521 28.3517 33.9425Z" fill="#03345F"/>
<path d="M26.0689 40.6551C25.6731 40.8806 25.1669 40.7468 24.9383 40.3563L24.1107 38.9425C23.8822 38.552 24.0178 38.0528 24.4136 37.8273C24.8094 37.6018 25.3156 37.7356 25.5442 38.1261L26.3718 39.54C26.6004 39.9304 26.4647 40.4297 26.0689 40.6551Z" fill="#03345F"/>
<path d="M13.6552 19.4457C13.2594 19.6711 12.7532 19.5373 12.5248 19.1469L11.6971 17.7331C11.4686 17.3427 11.6042 16.8434 12.0001 16.6181C12.3959 16.3926 12.902 16.5264 13.1305 16.9168L13.9581 18.3306C14.1866 18.7211 14.0509 19.2203 13.6552 19.4457Z" fill="#03345F"/>
<path d="M31.2185 21.6976C31.4471 22.0881 31.3114 22.5874 30.9156 22.8128L29.4823 23.6292C29.0865 23.8547 28.5803 23.7209 28.3517 23.3304C28.1232 22.94 28.2588 22.4406 28.6547 22.2152L30.088 21.3988C30.4838 21.1734 30.9901 21.3071 31.2185 21.6976Z" fill="#03345F"/>
<path d="M9.71722 33.9425C9.94578 34.333 9.81013 34.8324 9.41431 35.0579L7.98097 35.8744C7.58515 36.0998 7.079 35.966 6.85053 35.5755C6.62197 35.185 6.75762 34.6857 7.15344 34.4602L8.58678 33.6437C8.9825 33.4182 9.48866 33.5521 9.71722 33.9425Z" fill="#03345F"/>
<path d="M28.1379 38.4326C27.9261 38.4326 27.7143 38.3529 27.5528 38.1935L16.7942 27.5808C16.4709 27.2619 16.4709 26.7453 16.7942 26.4264C17.1174 26.1075 17.6412 26.1075 17.9645 26.4264L28.7231 37.039C29.0464 37.3578 29.0464 37.8745 28.7231 38.1934C28.5614 38.3529 28.3496 38.4326 28.1379 38.4326Z" fill="#FF3100"/>
<path d="M19.0344 30.269C19.9486 30.269 20.6896 29.5381 20.6896 28.6364C20.6896 27.7346 19.9486 27.0037 19.0344 27.0037C18.1203 27.0037 17.3793 27.7346 17.3793 28.6364C17.3793 29.5381 18.1203 30.269 19.0344 30.269Z" fill="#009ADA"/>
</svg>
