<svg width="32" height="32" viewBox="0 0 32 32" fill="none" xmlns="http://www.w3.org/2000/svg">
<circle cx="16" cy="16" r="16" fill="#072042"/>
<g clip-path="url(#clip0)">
<path d="M25.6881 9.89304C24.9512 10.2195 24.1695 10.4337 23.3691 10.5286C24.2118 10.0233 24.8424 9.22925 25.1439 8.29405C24.3464 8.76572 23.474 9.0973 22.5645 9.2744C21.9514 8.63845 21.1474 8.22004 20.2747 8.08275C19.402 7.94545 18.5084 8.09677 17.7296 8.51372C16.9508 8.93067 16.3294 9.59046 15.9597 10.3928C15.5901 11.1952 15.4925 12.0963 15.6818 12.9592C14.0784 12.8763 12.5102 12.4577 11.0788 11.7304C9.64741 11.003 8.38473 9.9832 7.37249 8.7369C6.85411 9.62817 6.69455 10.6834 6.92626 11.6881C7.15797 12.6928 7.76354 13.5715 8.6199 14.1457C7.97853 14.1252 7.3514 13.9514 6.79104 13.6387V13.6894C6.79442 14.6207 7.11814 15.5225 7.70787 16.2433C8.29759 16.9642 9.11738 17.4601 10.0296 17.648C9.43451 17.8108 8.81002 17.8351 8.2041 17.7189C8.46676 18.5179 8.97124 19.2154 9.64773 19.7151C10.3242 20.2147 11.1393 20.4918 11.9801 20.5079C10.5492 21.6309 8.78242 22.2404 6.96345 22.2387C6.64178 22.2445 6.32005 22.2309 6 22.1981C7.84616 23.385 9.99499 24.0152 12.1897 24.0135C19.6269 24.0135 23.6835 17.8575 23.6835 12.5197C23.6835 12.3439 23.6835 12.1817 23.6835 11.9991C24.4789 11.4293 25.1658 10.7218 25.7118 9.90994L25.6881 9.89304Z" fill="#F5FCFF"/>
</g>
<defs>
<clipPath id="clip0">
<rect x="6" y="8" width="19.6881" height="16" fill="white"/>
</clipPath>
</defs>
</svg>
