<svg width="32" height="32" viewBox="0 0 32 32" fill="none" xmlns="http://www.w3.org/2000/svg">
<path d="M32 16C32 24.8366 24.8366 32 16 32C7.16344 32 0 24.8366 0 16C0 7.16344 7.16344 0 16 0C24.8366 0 32 7.16344 32 16Z" fill="#072042"/>
<g clip-path="url(#clip0)">
<path d="M26.9891 10.5593C26.864 9.97005 26.5601 9.43374 26.1189 9.02367C25.6948 8.61443 25.147 8.35727 24.5613 8.29241C21.7735 8.05193 18.9752 7.9543 16.1774 7.99991C13.378 7.96025 10.5785 8.06398 7.78979 8.31069C7.206 8.37495 6.66039 8.63231 6.23951 9.04195C5.80012 9.44665 5.49517 9.97617 5.36566 10.5593C4.87014 14.1633 4.87014 17.8182 5.36566 21.4222C5.48931 22.012 5.79344 22.5487 6.23586 22.9579C6.65993 23.3671 7.20768 23.6243 7.79345 23.6891C10.5822 23.936 13.3817 24.0397 16.181 23.9999C18.978 24.0383 21.7751 23.9333 24.5613 23.6855C25.1451 23.6212 25.6907 23.3638 26.1115 22.9542C26.5501 22.5431 26.8514 22.0069 26.9744 21.4186C27.4827 18.4716 27.4424 13.9158 26.9891 10.5593ZM20.6015 16.6727L14.203 20.6727C13.94 20.7561 13.659 20.765 13.3913 20.6983C13.2611 20.6357 13.1524 20.5359 13.0789 20.4116C13.0054 20.2874 12.9703 20.1441 12.9781 19.9999V11.9999C12.9678 11.8543 13.0012 11.7089 13.0742 11.5825C13.1472 11.4561 13.2563 11.3544 13.3876 11.2906C13.5112 11.2169 13.6533 11.1801 13.7972 11.1846C13.941 11.1892 14.0806 11.2348 14.1993 11.3162L20.6015 15.3125C20.7192 15.3802 20.8158 15.4793 20.8804 15.5988C20.945 15.7183 20.975 15.8534 20.9671 15.9889C20.9764 16.1257 20.947 16.2624 20.8824 16.3833C20.8177 16.5041 20.7204 16.6044 20.6015 16.6727Z" fill="#F5FCFF"/>
</g>
<defs>
<clipPath id="clip0">
<rect x="5" y="8" width="22.3437" height="16" fill="white"/>
</clipPath>
</defs>
</svg>
